<svg xmlns="http://www.w3.org/2000/svg" viewBox="0 0 527.8 164.8"><style>.st0{fill:#263745}.st1{fill:#0071ce}</style><g id="Layer_4"><path class="st0" d="M107.3 99.3c-4.4 6.2-10.8 10.8-18.2 13.1-.6.2-1 .8-.8 1.4l1.2 5.7 1.2 5.6c.1.7.9 1.1 1.5.9 11.1-3.2 20.6-10.1 27-19.4.4-.6.2-1.4-.4-1.7l-4.9-2.9-5-3c-.5-.4-1.2-.3-1.6.3z"/><path class="st1" d="M83.2 107.7c-.1-.6-.7-1-1.3-1-1 .1-2 .2-3 .2-15.5 0-28-12.5-28-28 0-4.2.9-8.2 2.6-11.7.3-.6.1-1.2-.5-1.6l-5.1-3-4.9-3c-.6-.4-1.4-.1-1.7.5-2.8 5.6-4.4 12-4.4 18.7 0 23.2 18.8 42 42 42 2 0 3.9-.1 5.8-.4.7-.1 1.2-.8 1-1.5l-1.2-5.6-1.3-5.6z"/><path class="st0" d="M54.8 62.4c.5.3 1.2.2 1.6-.3 3.6-4.8 8.8-8.5 14.7-10.2.6-.2 1.2-.3 1.8-.4l1.8-.3c1.3-.2 2.7-.3 4.1-.3 15.5 0 28 12.5 28 28 0 4.2-.9 8.2-2.6 11.7-.3.6-.1 1.2.5 1.6l5.1 3 4.9 2.9c.6.4 1.4.1 1.7-.5 2.8-5.6 4.4-12 4.4-18.7 0-23.2-18.8-42-42-42-2.4 0-4.8.2-7.1.6l-1.8.3c-.6.1-1.2.3-1.8.4-9.7 2.5-18.1 8.5-23.7 16.5-.4.6-.2 1.4.4 1.8l4.9 2.9 5.1 3z"/><g><path class="st0" d="M213.9 63.2c-.1-.1-.2-.2-.3-.2h-2.9c-.2 0-.3.1-.3.2l-12.6 34.3c-.1.2.1.5.3.5h3.7c.2 0 .3-.1.4-.2l2.7-7.6h14.7l2.7 7.6c.1.1.2.2.4.2h3.7c.3 0 .4-.3.3-.5l-12.8-34.3zM206 86.5l6.1-17.2 6 17.2H206zM256.3 63h-3.4c-.2 0-.4.2-.4.4V90l-17.8-26.8c-.1-.1-.2-.2-.3-.2H231c-.2 0-.4.2-.4.4v34.3c0 .2.2.4.4.4h3.4c.2 0 .4-.2.4-.4V70.9l17.8 26.9c.1.1.2.2.3.2h3.3c.2 0 .4-.2.4-.4V63.3c.1-.2-.1-.3-.3-.3zM403.4 94.2h-17.1V63.3c0-.2-.2-.4-.4-.4h-3.4c-.2 0-.4.2-.4.4V98h20.2c.2 0 .3-.1.3-.2l1.1-3.1c.1-.2-.1-.5-.3-.5zM195.9 63h-3.4c-.2 0-.4.2-.4.4v22.7c0 5.1-3.2 8.4-8.1 8.4-4.9 0-8.1-3.3-8.1-8.4V63.3c0-.2-.2-.4-.4-.4H172c-.2 0-.4.2-.4.4v23c0 7 5 11.9 12.3 11.9 7.1 0 12.3-5 12.3-11.9v-23c.1-.2-.1-.3-.3-.3zM164.2 93.4c2.3-3 2.3-6.3 2.3-12.9 0-7.4 0-10.8-3.3-14.1-2.4-2.4-5.5-3.7-9-3.7s-6.6 1.3-9 3.7c-3.3 3.3-3.3 6.7-3.3 14.1s0 10.8 3.3 14.1c2.4 2.4 5.5 3.7 9 3.7 2.8 0 5.3-.8 7.4-2.3l3.6 3.6c.1.1.4.1.5 0l2.1-2.1c.1-.1.1-.4 0-.5l-3.6-3.6zm-4.2-1.3c-1.2 1.2-2.8 2-4.5 2.3h-.1c-.4.1-.8.1-1.1.1-2.2 0-4.3-.9-5.8-2.4-.8-.8-1.3-1.6-1.7-2.7-.6-1.8-.7-4.3-.7-8.9 0-7.4.3-9.5 2.4-11.6 1.5-1.5 3.6-2.4 5.8-2.4s4.3.9 5.8 2.4c.5.5.9 1.1 1.2 1.7 1 1.8 1.1 4.4 1.1 9.9-.1 7.3-.3 9.5-2.4 11.6zM490.9 97.4l-12.2-20.9 10.6-13c.2-.2 0-.6-.3-.6h-4.2c-.1 0-.2.1-.3.1l-15.6 19.2v-19c0-.2-.2-.4-.4-.4h-3.4c-.2 0-.4.2-.4.4v34.3c0 .2.2.4.4.4h3.4c.2 0 .4-.2.4-.4v-9.4l7-8.4 10.3 18c.1.1.2.2.3.2h4.1c.3.1.5-.2.3-.5zM448.7 66.5c4 0 7 2.5 7.9 6.8v.2h4.3l-.1-.3c-1.2-6.5-5.8-10.5-12.2-10.5-3.4 0-6.6 1.3-9 3.7-3.3 3.3-3.3 6.7-3.3 14.1s0 10.8 3.3 14.1c2.4 2.4 5.6 3.7 9 3.7 6.4 0 11.1-4 12.2-10.5l.1-.3h-4.2v.2c-.9 4.2-3.9 6.8-8 6.8-2.2 0-4.3-.9-5.8-2.3-2.1-2.1-2.4-4.3-2.4-11.7s.3-9.5 2.4-11.7c1.5-1.5 3.6-2.3 5.8-2.3zM422.4 63.2c-.1-.1-.2-.2-.3-.2h-2.9c-.2 0-.3.1-.3.2l-12.6 34.3c-.1.2.1.5.3.5h3.7c.2 0 .3-.1.4-.2l2.7-7.6h14.7l2.7 7.6c.1.1.2.2.4.2h3.7c.3 0 .4-.3.3-.5l-12.8-34.3zm-7.9 23.3l6.1-17.2 6 17.2h-12.1zM283.8 63h-23.4c-.2 0-.4.2-.4.4v3.1c0 .2.2.4.4.4h9.6v30.9c0 .2.2.4.4.4h3.4c.2 0 .4-.2.4-.4v-31h9.6c.2 0 .4-.2.4-.4v-3.1c0-.2-.1-.3-.4-.3zM372.5 80c2.9-1.3 4.7-4.2 4.7-7.6 0-5.8-4.1-9.5-10.4-9.5h-12.9c-.2 0-.4.2-.4.4v34.3c0 .2.2.4.4.4h13.3c6.6 0 10.5-3.7 10.5-9.8.1-3.7-1.9-6.8-5.2-8.2zm-14.8-13.2h8.8c4.2 0 6.5 2.1 6.5 5.7s-2.4 5.8-6.5 5.8h-8.8V66.8zm9.2 27.4h-9.2V82.1h9.2c4.1 0 6.7 2.3 6.7 6.1 0 3.7-2.6 6-6.7 6zM311.9 63h-3.4c-.2 0-.4.2-.4.4v22.7c0 5.1-3.2 8.4-8.1 8.4-4.9 0-8.1-3.3-8.1-8.4V63.3c0-.2-.2-.4-.4-.4H288c-.2 0-.4.2-.4.4v23c0 7 5 11.9 12.3 11.9 7.1 0 12.3-5 12.3-11.9v-23c0-.2-.1-.3-.3-.3zM347.6 63h-3.5c-.1 0-.3.1-.3.2L333 87.1l-11-23.9c-.1-.1-.2-.2-.3-.2h-3.5c-.2 0-.4.2-.4.4v34.3c0 .2.2.4.4.4h3.4c.2 0 .4-.2.4-.4v-25l9.1 19.7c.1.1.2.2.3.2h3c.1 0 .3-.1.3-.2l8.9-19.7v25c0 .2.2.4.4.4h3.4c.2 0 .4-.2.4-.4V63.3c.1-.2 0-.3-.2-.3z"/></g></g></svg>
