<svg version="1.1" id="Layer_1" xmlns="http://www.w3.org/2000/svg" x="0" y="0" viewBox="0 0 3814.9 1593.3" xml:space="preserve"><g fill="#ff2837"><path d="M1090.4 133c37.8 22.3 75.7 69 75.7 135.7 0 89-71.2 158-160.2 158-33.4 0-60.1-8.9-86.8-24.5-113.5-66.8-220.6-104.6-327.4-104.6-131.3 0-200.6 60.1-200.6 135.7v4.4c0 2.7.4 5.4.5 8.1-88.8-54.7-134.6-109.5-157.9-147.1C206 254 196.6 212 205.7 174c13-54.7 61.4-91.2 89.1-108.2 11.8-7.2 20.3-12.1 26.3-15.5 79.2-36 172.5-55.5 275.4-55.5C785.6-4.9 950.2 44 1090.4 133z"/><path d="M1222 1114.3c0 309.3-236 482.8-572 482.8-204.7 0-411.7-62.3-585.3-186.9C26.9 1383.5.1 1334.5.1 1281.1c0-89 71.2-158 160.2-158 44.5 0 75.6 15.6 97.9 31.2 117.9 86.8 247.4 140.2 398.7 140.2 140.2 0 225.1-55.6 225.1-146.9v-4.5c0-86.8-53.4-131.3-313.8-198C254.5 865.1 52 778.3 52 469v-4.4c0-103.4 30-193.9 84.1-267.2-1.3 44.2 12.3 90 41.2 136.6 23.7 38.3 56.1 74.9 96.4 108.9 31.7 26.7 68.3 51.9 108.9 74.9 54.9 31.1 101.8 49.7 119.8 56.3 51.2 21.5 124.1 42.4 225.6 68.4 316 82.3 494.1 195.8 494.1 467.3v4.5zM3790 1063.1c0 329.3-238.5 538.5-581.1 538.5-215.8 0-365.1-57.9-489.7-146.9-40.1-28.9-69.1-73.4-69.1-131.3 0-89 73.4-164.7 162.4-164.7 40.1 0 66.7 11.1 93.4 31.2 95.7 69 186.8 100.1 295.8 100.1 144.6 0 251.3-77.9 251.3-215.8v-4.4c0-133.5-113.4-211.4-275.8-211.4-131.3 0-189.1 40.1-235.8 40.1-49 0-86.7-20-155.7-69-46.7-33.4-66.7-80.1-62.3-138l31.2-527.5c4.5-82.3 69-147 151.3-147h676.4c82.3 0 151.3 69.3 151.3 151.6s-69 149.4-151.3 149.4h-525.1l-17.8 269.1c62.3-15.6 118.3-26.8 205.1-26.8 307.1 0 545.5 146.8 545.5 498.3v4.5zM1670 985.4c21.6 57.8 52.8 109.4 92.9 153.5 82.5 90.6 195.6 141.2 318.7 142.5h2.5l2.5-.2c83.6-5.4 157-27.9 224.7-68.9l1.4-.9 1.4-1c26.3-17.8 58.1-27.7 89.5-27.7 4.7 0 9.3.2 14.1.7 41.8 4 79.6 23.9 106.3 56.1 26.6 32 39.1 72.4 35.2 113.6-2.2 23.3-9 45.1-20.1 64.9-11.1 19.7-25.9 36.3-44.1 49.3-60.5 40.3-123.6 69.9-193.1 90.5-70 20.8-145.5 32.2-230.7 34.9l-11.8.4c-7.8.2-15.1.2-22.8.2-48.5 0-97.5-5.4-145.8-16.1-47-10.4-93.8-25.9-138.9-46.1-44.3-19.8-87.4-44.2-128-72.6-40.2-28.1-78.2-60.2-112.8-95.3-146.4-148.4-226.9-347.9-226.9-561.7v-4.4c0-213.9 80.2-413.6 226.1-562.3 34.8-35.5 72.6-67.8 112.5-96.2 40.7-29 83.7-54 127.8-74.3 93.1-42.8 189.7-64.5 287-64.5 94.1 0 176.6 10.1 252.1 31 74.6 20.6 142.5 51.7 207.6 95 17.9 12.8 32.4 29.2 43.2 48.8 10.9 19.7 17.5 41.7 19.8 65.4 8.1 85.3-55.7 161.4-142.3 169.7-4.6.4-9.7.7-14.5.7-31.9 0-63.9-9.8-90.2-27.7l-1.4-1-1.5-.9c-33.1-20-66.3-35.3-101.6-46.5-38.3-12.2-78.1-19.5-121.8-22.3l-2.5-.2h-2.5c-122.9 1.3-235.9 51.6-318.5 141.6-81.5 88.8-126.2 209.3-126.2 339.4v4.4c-.3 65.9 10.7 129.3 32.7 188.2z"/></g></svg>